HIERARCHY
ROOT Hips
{
	OFFSET 51.569801 -7.401784 84.338303
	CHANNELS 6 Xposition Yposition Zposition Xrotation Yrotation Zrotation
	JOINT spine
	{
		OFFSET 0.000000 -0.342408 5.954376
		CHANNELS 3 Xrotation Yrotation Zrotation
		JOINT spine1
		{
			OFFSET 0.000000 -0.000001 8.856018
			CHANNELS 3 Xrotation Yrotation Zrotation
			JOINT spine2
			{
				OFFSET 0.000000 -0.000001 8.485672
				CHANNELS 3 Xrotation Yrotation Zrotation
				JOINT Neck
				{
					OFFSET 0.000000 -1.038703 21.786301
					CHANNELS 3 Xrotation Yrotation Zrotation
					JOINT Head
					{
						OFFSET 0.000000 -0.000001 6.582199
						CHANNELS 3 Xrotation Yrotation Zrotation
						End Site
						{
							OFFSET 0.000000 5.254357 15.932602
						}
					}
				}
				JOINT RightShoulder
				{
					OFFSET -3.573071 0.497524 9.163864
					CHANNELS 3 Xrotation Yrotation Zrotation
					JOINT RightArm
					{
						OFFSET 0.000000 -0.000002 12.019196
						CHANNELS 3 Xrotation Yrotation Zrotation
						JOINT RightArmRoll
						{
							OFFSET 0.000000 -0.000001 6.067551
							CHANNELS 3 Xrotation Yrotation Zrotation
							JOINT RightForeArm
							{
								OFFSET 0.000000 -0.000003 17.672607
								CHANNELS 3 Xrotation Yrotation Zrotation
								JOINT RightForeArmRoll
								{
									OFFSET 0.000000 -0.000001 6.808716
									CHANNELS 3 Xrotation Yrotation Zrotation
									JOINT RightHand
									{
										OFFSET 0.000000 -0.000002 13.663605
										CHANNELS 3 Xrotation Yrotation Zrotation
										End Site
										{
											OFFSET 0.000000 0.000000 0.100006
										}
									}
								}
							}
						}
					}
				}
				JOINT LeftShoulder
				{
					OFFSET 3.573071 0.497524 9.163864
					CHANNELS 3 Xrotation Yrotation Zrotation
					JOINT LeftArm
					{
						OFFSET 0.000000 -0.000002 12.019196
						CHANNELS 3 Xrotation Yrotation Zrotation
						JOINT LeftArmRoll
						{
							OFFSET 0.000000 -0.000001 6.067551
							CHANNELS 3 Xrotation Yrotation Zrotation
							JOINT LeftForeArm
							{
								OFFSET 0.000000 -0.000003 17.672607
								CHANNELS 3 Xrotation Yrotation Zrotation
								JOINT LeftForeArmRoll
								{
									OFFSET 0.000000 -0.000001 6.808716
									CHANNELS 3 Xrotation Yrotation Zrotation
									JOINT LeftHand
									{
										OFFSET 0.000000 -0.000002 13.663605
										CHANNELS 3 Xrotation Yrotation Zrotation
										End Site
										{
											OFFSET 0.000000 0.000000 0.100006
										}
									}
								}
							}
						}
					}
				}
			}
		}
	}
	JOINT RightUpLeg
	{
		OFFSET -5.277740 0.811859 -0.967796
		CHANNELS 3 Xrotation Yrotation Zrotation
		JOINT RightUpLegRoll
		{
			OFFSET 0.000000 -0.000003 16.021400
			CHANNELS 3 Xrotation Yrotation Zrotation
			JOINT RightLeg
			{
				OFFSET 0.000000 0.000003 -19.840103
				CHANNELS 3 Xrotation Yrotation Zrotation
				JOINT RightLegRoll
				{
					OFFSET 0.000000 -0.000003 19.904999
					CHANNELS 3 Xrotation Yrotation Zrotation
					JOINT RightFoot
					{
						OFFSET 0.000000 -0.000003 16.567497
						CHANNELS 3 Xrotation Yrotation Zrotation
						JOINT RightToeBase
						{
							OFFSET 0.000000 -0.000002 13.849602
							CHANNELS 3 Xrotation Yrotation Zrotation
							End Site
							{
								OFFSET 0.005871 0.773115 6.707275
							}
						}
					}
				}
			}
		}
	}
	JOINT LeftUpLeg
	{
		OFFSET 5.277740 0.811859 -0.967796
		CHANNELS 3 Xrotation Yrotation Zrotation
		JOINT LeftUpLegRoll
		{
			OFFSET 0.000000 -0.000003 16.021500
			CHANNELS 3 Xrotation Yrotation Zrotation
			JOINT LeftLeg
			{
				OFFSET 0.000000 -0.000003 19.840004
				CHANNELS 3 Xrotation Yrotation Zrotation
				JOINT LeftLegRoll
				{
					OFFSET 0.000000 -0.000003 20.089005
					CHANNELS 3 Xrotation Yrotation Zrotation
					JOINT LeftFoot
					{
						OFFSET 0.000000 -0.000002 16.383499
						CHANNELS 3 Xrotation Yrotation Zrotation
						JOINT LeftToeBase
						{
							OFFSET 0.000000 -0.000002 13.849594
							CHANNELS 3 Xrotation Yrotation Zrotation
							End Site
							{
								OFFSET -0.026310 0.773115 6.707275
							}
						}
					}
				}
			}
		}
	}
}
MOTION
Frames: 10
Frame Time: 0.041667
51.096100 -8.829996 83.783905 -11.702785 4.419016 -5.728677 0.507599 0.030662 -0.003161 5.018024 0.061370 -0.006652 6.663104 0.061286 -0.007381 1.933559 -14.759060 -1.685694 5.870049 9.098628 0.289788 -38.337247 -51.530714 -46.405722 -73.623306 -126.981044 -98.492721 -0.000002 -0.000026 0.000003 123.618077 0.486135 -4.532847 -0.000003 0.000026 -3.000002 -5.000172 -7.999928 0.000001 11.755645 48.176510 -16.023272 -75.125367 156.173997 96.343049 -0.000001 0.000003 -0.000000 57.320279 -2.963806 4.087253 -0.000001 -0.000012 2.999975 -5.000164 7.999940 0.000007 6.369872 173.814121 -1.503566 -179.999991 0.000005 -1.185005 168.035754 0.715125 -0.454463 0.000002 0.000002 -0.075809 66.417367 6.940262 2.223897 25.456957 -7.355615 -0.000000 3.176219 175.550820 -2.664025 -0.000005 -0.000004 -1.240150 -21.468408 1.278360 0.965599 0.000007 -0.000002 -0.414961 71.998936 -6.777047 -2.201467 25.456943 7.355613 -0.000000 
51.081703 -8.798989 83.781403 -11.616637 4.369777 -5.399495 0.474889 0.040116 -0.006672 4.952606 0.080080 -0.014067 6.597677 0.079908 -0.015028 2.089599 -14.264194 -1.804424 5.691423 8.497664 0.137407 -38.070337 -51.189327 -46.117448 -73.683869 -127.127661 -98.614490 -0.000002 -0.000024 0.000002 123.768765 0.480819 -4.529944 -0.000001 0.000027 -3.000002 -5.000176 -7.999928 0.000007 11.832641 48.573235 -16.029600 -74.787607 155.973476 96.334060 0.000001 -0.000000 0.000003 58.032504 -2.943044 4.106557 0.000000 -0.000011 2.999979 -5.000165 7.999943 0.000008 6.329101 173.779834 -1.509856 -179.999991 0.000005 -1.182000 168.122552 0.677188 -0.455582 0.000003 0.000002 -0.076113 66.399650 6.940823 2.224136 25.456959 -7.355615 0.000000 2.990310 175.518076 -2.631427 -0.000005 -0.000004 -1.237790 -21.502834 1.233758 0.961982 0.000008 -0.000002 -0.417716 71.997427 -6.777032 -2.200256 25.456950 7.355613 -0.000000 
51.047005 -8.798690 83.782997 -11.552693 4.347126 -5.082456 0.448633 0.049902 -0.009681 4.900088 0.099502 -0.020532 6.545160 0.099252 -0.021732 2.235396 -13.835272 -1.922633 5.521635 7.939871 -0.005491 -37.830003 -50.928349 -45.851360 -73.785646 -127.271983 -98.742761 -0.000002 -0.000024 0.000002 123.932171 0.474498 -4.527759 -0.000005 0.000027 -3.000002 -5.000172 -7.999931 0.000002 11.875308 48.914646 -16.006051 -74.451726 155.752792 96.322251 -0.000001 -0.000001 0.000000 58.763881 -2.921615 4.127313 -0.000002 -0.000012 2.999977 -5.000162 7.999943 0.000007 6.337411 173.712351 -1.538297 -179.999991 0.000005 -1.177997 168.250140 0.647144 -0.454402 0.000003 0.000001 -0.078845 66.365116 6.941412 2.224345 25.456957 -7.355617 0.000001 2.828409 175.450539 -2.624669 -0.000005 -0.000004 -1.234990 -21.548811 1.193984 0.959353 0.000007 -0.000002 -0.420753 72.003356 -6.777131 -2.199012 25.456945 7.355613 -0.000001 
51.000004 -8.794538 83.786903 -11.505928 4.345523 -4.772774 0.427371 0.060014 -0.012298 4.857572 0.119611 -0.026293 6.502645 0.119290 -0.027738 2.371383 -13.458087 -2.042112 5.359436 7.413345 -0.142266 -37.612861 -50.732903 -45.606539 -73.919128 -127.411196 -98.879173 -0.000002 -0.000022 0.000001 124.112979 0.467752 -4.525512 -0.000005 0.000028 -2.999999 -5.000173 -7.999930 0.000005 11.888705 49.209529 -15.956722 -74.112996 155.532478 96.309035 -0.000001 -0.000001 0.000001 59.478366 -2.900337 4.147074 -0.000002 -0.000012 2.999977 -5.000163 7.999937 0.000008 6.387323 173.618518 -1.584929 -179.999991 0.000005 -1.172999 168.416305 0.623042 -0.451299 0.000002 0.000002 -0.083775 66.314402 6.942044 2.224688 25.456959 -7.355617 0.000001 2.684481 175.353086 -2.638391 -0.000004 -0.000004 -1.231760 -21.603829 1.157677 0.957446 0.000008 -0.000002 -0.424068 72.015629 -6.777285 -2.198090 25.456948 7.355613 -0.000000 
50.945000 -8.782060 83.784897 -11.474288 4.362056 -4.469453 0.410504 0.070427 -0.014576 4.823844 0.140351 -0.031442 6.468919 0.139968 -0.033138 2.499560 -13.125431 -2.162030 5.203424 6.913519 -0.273320 -37.413881 -50.595688 -45.377827 -74.081980 -127.546994 -99.023441 0.000001 -0.000026 0.000002 124.308186 0.460511 -4.522155 -0.000005 0.000029 -3.000002 -5.000167 -7.999927 0.000003 11.875565 49.463974 -15.883786 -73.772511 155.312245 96.295538 -0.000002 -0.000000 0.000003 60.176637 -2.879240 4.165913 -0.000001 -0.000011 2.999981 -5.000160 7.999940 0.000007 6.473242 173.502337 -1.647679 -179.999991 0.000005 -1.167001 168.615869 0.602900 -0.445606 0.000003 0.000002 -0.090600 66.249816 6.942762 2.224928 25.456955 -7.355615 0.000001 2.556078 175.230743 -2.669709 -0.000005 -0.000004 -1.228160 -21.666782 1.124393 0.956155 0.000007 -0.000002 -0.427620 72.033490 -6.777472 -2.197137 25.456948 7.355613 -0.000001 
50.860401 -8.828607 83.792809 -11.455522 4.393881 -4.171510 0.397426 0.081119 -0.016564 4.797699 0.161669 -0.036069 6.442777 0.161229 -0.038023 2.621917 -12.830299 -2.281691 5.052285 6.435810 -0.399173 -37.227833 -50.509030 -45.159855 -74.269203 -127.681357 -99.171956 0.000001 -0.000023 0.000001 124.514991 0.452762 -4.519651 -0.000005 0.000028 -2.999999 -5.000171 -7.999930 0.000005 11.838948 49.684254 -15.789816 -73.430066 155.092545 96.279624 0.000000 0.000001 0.000001 60.859403 -2.858332 4.183856 0.000000 -0.000010 2.999977 -5.000165 7.999938 0.000004 6.589608 173.365733 -1.724746 -179.999991 0.000005 -1.159993 168.843205 0.586705 -0.438296 0.000002 0.000002 -0.099011 66.173769 6.943515 2.225305 25.456955 -7.355616 0.000000 2.440743 175.086435 -2.715901 -0.000005 -0.000004 -1.224240 -21.736561 1.093713 0.955387 0.000008 -0.000002 -0.431372 72.055969 -6.777721 -2.196312 25.456947 7.355613 -0.000002 
50.739899 -8.863989 83.780899 -11.447390 4.438211 -3.877931 0.387542 0.092062 -0.018312 4.777925 0.183514 -0.040264 6.423003 0.183022 -0.042479 2.740374 -12.565371 -2.400560 4.904665 5.975688 -0.520452 -37.050416 -50.465488 -44.948249 -74.479750 -127.815652 -99.326059 0.000002 -0.000022 0.000002 124.730497 0.444966 -4.516152 -0.000003 0.000028 -3.000000 -5.000168 -7.999928 0.000006 11.782047 49.876729 -15.677521 -73.087382 154.872873 96.263457 -0.000001 0.000000 0.000001 61.527669 -2.837613 4.201000 -0.000001 -0.000014 2.999980 -5.000164 7.999941 0.000010 6.730823 173.212668 -1.814085 -179.999991 0.000005 -1.152999 169.093040 0.574434 -0.430312 0.000003 0.000002 -0.108705 66.088671 6.944287 2.225662 25.456957 -7.355616 0.000000 2.336057 174.924205 -2.774253 -0.000005 -0.000004 -1.220050 -21.811862 1.065202 0.955043 0.000007 -0.000002 -0.435284 72.082319 -6.777977 -2.195652 25.456953 7.355613 -0.000001 
50.715801 -8.839190 83.783211 -11.447945 4.492279 -3.587684 0.380229 0.103234 -0.019872 4.763312 0.205831 -0.044115 6.408391 0.205292 -0.046595 2.856881 -12.323536 -2.518200 4.759332 5.528609 -0.637879 -36.877417 -50.457415 -44.738630 -74.711225 -127.951395 -99.485155 -0.000000 -0.000024 0.000002 124.951713 0.436564 -4.513453 -0.000002 0.000031 -2.999999 -5.000171 -7.999925 0.000003 11.708178 50.047419 -15.549703 -72.744206 154.653583 96.245234 -0.000002 -0.000001 0.000003 62.182151 -2.817088 4.217386 0.000003 -0.000012 2.999979 -5.000163 7.999940 0.000009 6.891260 173.048088 -1.913497 -179.999991 0.000005 -1.144994 169.359977 0.566096 -0.420650 0.000003 0.000002 -0.119376 65.996703 6.945100 2.226065 25.456953 -7.355616 0.000001 2.239550 174.746988 -2.842073 -0.000005 -0.000004 -1.215660 -21.891677 1.038411 0.955022 0.000007 -0.000002 -0.439318 72.111607 -6.778294 -2.194925 25.456950 7.355614 -0.000000 
50.610802 -8.860500 83.795006 -11.454744 4.553422 -3.299741 0.374899 0.114613 -0.021292 4.752657 0.228571 -0.047707 6.397742 0.227987 -0.050459 2.973329 -12.097675 -2.634300 4.614998 5.090090 -0.752264 -36.704822 -50.476908 -44.526560 -74.960001 -128.090294 -99.647556 -0.000001 -0.000023 0.000002 125.175921 0.428632 -4.509880 -0.000003 0.000031 -3.000000 -5.000168 -7.999930 0.000006 11.620752 50.202573 -15.409276 -72.401884 154.434402 96.226239 -0.000001 0.000000 0.000004 62.823527 -2.796779 4.233088 -0.000001 -0.000010 2.999979 -5.000163 7.999941 0.000006 7.065363 172.873959 -2.021034 -179.999991 0.000005 -1.137003 169.638499 0.558732 -0.409843 0.000002 0.000002 -0.130717 65.900384 6.945937 2.226453 25.456957 -7.355618 -0.000000 2.148777 174.558803 -2.916679 -0.000004 -0.000004 -1.211100 -21.974814 1.012914 0.955235 0.000008 -0.000002 -0.443434 72.143047 -6.778631 -2.194372 25.456952 7.355613 -0.000001 
50.513901 -8.900249 83.795998 -11.465741 4.618965 -3.013074 0.370944 0.126174 -0.022621 4.744767 0.251684 -0.051126 6.389842 0.251056 -0.054153 3.091610 -11.880676 -2.748597 4.470442 4.655635 -0.864501 -36.528572 -50.516567 -44.307881 -75.222519 -128.234179 -99.811378 0.000002 -0.000025 0.000003 125.400128 0.420006 -4.508038 -0.000002 0.000033 -2.999999 -5.000172 -7.999933 0.000002 11.523292 50.348627 -15.259278 -72.060640 154.215358 96.205701 0.000002 -0.000001 0.000001 63.452724 -2.776670 4.248163 -0.000003 -0.000010 2.999979 -5.000165 7.999940 0.000004 7.247482 172.694189 -2.134442 -179.999991 0.000005 -1.128998 169.923331 0.554310 -0.399494 0.000003 0.000002 -0.142425 65.802001 6.946740 2.226869 25.456955 -7.355615 -0.000000 2.061295 174.364621 -2.995349 -0.000004 -0.000004 -1.206450 -22.060154 0.988280 0.955586 0.000007 -0.000002 -0.447594 72.175681 -6.778983 -2.193847 25.456948 7.355613 -0.000000 
